<?xml version="1.0" encoding="UTF-8"?>
<svg xmlns="http://www.w3.org/2000/svg" width="10" height="16" viewBox="0 0 10 16" fill="none">
  <path d="M1.42334 1.68994L7.2124 7.62744L1.42334 13.5649C1.31201 13.6763 1.25635 13.8062 1.25635 13.9546C1.25635 14.103 1.31201 14.2329 1.42334 14.3442C1.53467 14.4556 1.66455 14.5112 1.81299 14.5112C1.96143 14.5112 2.08512 14.4618 2.18408 14.3628L8.34424 8.03564C8.45557 7.92432 8.51123 7.78825 8.51123 7.62744C8.51123 7.46663 8.45557 7.33057 8.34424 7.21924L2.20264 0.89209C2.09131 0.793131 1.96143 0.743652 1.81299 0.743652C1.65218 0.743652 1.5223 0.799316 1.42334 0.910645C1.31201 1.02197 1.25635 1.15186 1.25635 1.30029C1.25635 1.44873 1.31201 1.57861 1.42334 1.68994Z" fill="white" stroke="white"></path>
</svg>
