<?xml version="1.0" encoding="UTF-8"?>
<svg xmlns="http://www.w3.org/2000/svg" width="36" height="36" viewBox="0 0 36 36" fill="none">
  <g opacity="0.5">
    <path d="M27.3402 35.3C27.2202 35.3 27.1102 35.32 26.9902 35.32C22.2802 35.6 17.6602 34.44 13.6202 31.95C9.60019 29.48 6.46019 25.88 4.54019 21.55L0.700195 12.87L2.9502 12.38C3.6502 12.23 4.34019 12 5.01019 11.71C10.1402 9.43999 12.5602 3.66999 12.5802 3.60999L13.2702 1.93999L14.9702 2.55999C15.0202 2.57999 20.9202 4.66999 26.0502 2.39999C26.7202 2.10999 27.3502 1.73999 27.9302 1.32999L29.8102 -0.0100098L33.6502 8.66999C35.5702 13 36.1202 17.74 35.2502 22.38C34.3702 27.04 32.1302 31.25 28.7502 34.55C28.6702 34.63 28.5902 34.71 28.5002 34.79L28.0102 35.26L27.3402 35.31V35.3Z" fill="#7891FF"></path>
  </g>
  <path d="M14.3103 4.31998C14.3103 4.31998 10.9703 12.56 3.34033 14.22L6.25034 20.79C9.83034 28.88 18.0503 33.97 26.8803 33.44C26.9903 33.44 27.0903 33.43 27.2003 33.42C27.2803 33.35 27.3503 33.27 27.4303 33.2C33.7603 27.01 35.5103 17.51 31.9203 9.41998L29.0103 2.84998C22.6503 7.38998 14.3103 4.31998 14.3103 4.31998Z" fill="url(#paint0_linear_4044_263)"></path>
  <path d="M22.61 24.63C22.44 24.71 22.24 24.7 22.08 24.61L16.07 21.35C15.78 21.19 15.67 20.83 15.83 20.53C15.99 20.24 16.35 20.13 16.65 20.29L21.95 23.16L24.58 10.41C24.65 10.08 24.97 9.86997 25.29 9.93997C25.62 10.01 25.83 10.33 25.76 10.65L22.97 24.19C22.93 24.38 22.81 24.53 22.63 24.61C22.63 24.61 22.63 24.61 22.62 24.61L22.61 24.63Z" fill="white"></path>
  <defs>
    <linearGradient id="paint0_linear_4044_263" x1="27.2049" y1="33.4171" x2="14.3144" y2="4.31415" gradientUnits="userSpaceOnUse">
      <stop stop-color="#0092A1"></stop>
      <stop offset="1" stop-color="#49FADE"></stop>
    </linearGradient>
  </defs>
</svg>
